# xmcd
#
# Track frame offsets:
#	150
#	22053
#	43283
#	70493
#	90220
#	99838
#	119793
#	129830
#	147685
#	167255
#
# Disc length: 2663 seconds
#
# Revision: 1
# Processed by: cddbd v1.4PL0 Copyright (c) Steve Scherf et al.
# Submitted via: audiograbber 1.80.04
#
DISCID=880a650a
DTITLE=Barry White - Beware!
DYEAR=1981
DGENRE=R&B
TTITLE0=Beware
TTITLE1=Relax To The Max
TTITLE2=Let Me In And Let's Begin With Love
TTITLE3=Your Love, Your Love
TTITLE4=Tell Me Who Do You Love
TTITLE5=Rio De Janeiro
TTITLE6=You're My High
TTITLE7=Oooo....Ahhh....
TTITLE8=I Won't Settle For Less Than The Best (For You Baby)
TTITLE9=Louie Louie
EXTD=
EXTT0=
EXTT1=
EXTT2=
EXTT3=
EXTT4=
EXTT5=
EXTT6=
EXTT7=
EXTT8=
EXTT9=
PLAYORDER=
